<svg width="24" height="18" viewBox="0 0 24 18" fill="none" xmlns="http://www.w3.org/2000/svg">
<path d="M7.29468 1.42921C7.42672 1.42921 7.55355 1.48166 7.64722 1.57471H7.64819C7.69506 1.6212 7.73218 1.67687 7.75757 1.7378C7.78291 1.79869 7.79565 1.86423 7.79565 1.93018C7.79563 1.99613 7.78293 2.06169 7.75757 2.12257C7.73224 2.1833 7.69488 2.2383 7.64819 2.28468L2.23804 7.64503L1.37476 8.49952H22.9998C23.1322 8.49952 23.2595 8.55248 23.3533 8.646C23.4469 8.73966 23.4996 8.86708 23.4998 8.99952C23.4998 9.13213 23.447 9.26024 23.3533 9.35401C23.2595 9.44753 23.1322 9.49952 22.9998 9.49952H1.38257L2.23608 10.354L7.59644 15.7134L7.59839 15.7153C7.64505 15.7617 7.68245 15.8167 7.70776 15.8774C7.73313 15.9383 7.74583 16.0039 7.74585 16.0698C7.74585 16.1358 7.73309 16.2013 7.70776 16.2622C7.68239 16.3231 7.64522 16.3788 7.59839 16.4253C7.55177 16.4715 7.49606 16.5078 7.4353 16.5327C7.37438 16.5576 7.30872 16.5702 7.24292 16.5698H7.24194C7.14365 16.5694 7.04826 16.5404 6.96753 16.4868L6.89233 16.4253L1.23315 10.7661C0.765365 10.2974 0.502686 9.66174 0.502686 8.99952C0.502813 8.33794 0.765116 7.70335 1.23218 7.23487L6.94214 1.57471C7.03573 1.48168 7.16272 1.4293 7.29468 1.42921Z" fill="#7F3DFF" stroke="#212325"/>
</svg>
